<?xml version="1.0" encoding="UTF-8"?>
<svg version="1.1" xmlns="http://www.w3.org/2000/svg" width="500" height="500">
<path d="M0 0 C5.23457562 7.06667709 5.26494965 14.42091239 5.31738281 22.88745117 C5.33609688 24.14621126 5.35481094 25.40497135 5.3740921 26.70187569 C5.42464423 30.21125806 5.45537953 33.72056813 5.48176098 37.23020577 C5.50020841 39.49432921 5.52399951 41.75833605 5.54950714 44.02239037 C6.03347793 87.20930953 5.80827777 130.40189962 5.59314775 173.58981693 C5.54885524 182.73580857 5.52090306 191.88180382 5.49592948 201.02786571 C5.47073832 209.98141789 5.4342044 218.9348776 5.38884377 227.88835019 C5.36224132 233.17883765 5.34013769 238.46924395 5.32982635 243.75979042 C5.31989197 248.67814268 5.29582941 253.59622524 5.26089287 258.51446152 C5.25053533 260.3087195 5.24518432 262.10301476 5.24532509 263.89730263 C5.24079247 282.59761322 5.24079247 282.59761322 0.171875 291.17578125 C-6.02206796 297.04372721 -12.67069754 299.57494958 -21.0138092 299.57295227 C-21.82996199 299.57662896 -22.64611477 299.58030565 -23.48699945 299.58409375 C-26.23751436 299.59515711 -28.98799153 299.59897896 -31.73852539 299.6027832 C-33.70448935 299.609046 -35.67045212 299.61569263 -37.63641357 299.62269592 C-42.99003036 299.64012611 -48.3436382 299.65066381 -53.69727635 299.65890145 C-57.04185787 299.66404877 -60.3864366 299.67012471 -63.73101616 299.67641258 C-74.19456888 299.69547279 -84.65811452 299.70970052 -95.12168127 299.71802455 C-107.2009323 299.72779219 -119.27999985 299.75409598 -131.35918623 299.79452544 C-140.69347414 299.82469521 -150.02770951 299.83949437 -159.36204523 299.84280556 C-164.9375477 299.84515563 -170.51285435 299.85411015 -176.08830452 299.87926674 C-181.33731589 299.90256649 -186.58600279 299.9067729 -191.83505249 299.89650536 C-193.75829078 299.8960103 -195.68154514 299.90232167 -197.60473442 299.9160614 C-216.28944134 300.04204337 -216.28944134 300.04204337 -223.203125 295.42578125 C-224.193125 294.76578125 -225.183125 294.10578125 -226.203125 293.42578125 C-226.203125 292.76578125 -226.203125 292.10578125 -226.203125 291.42578125 C-226.863125 291.42578125 -227.523125 291.42578125 -228.203125 291.42578125 C-228.86505586 290.26817193 -229.50666646 289.09894295 -230.140625 287.92578125 C-230.50027344 287.27609375 -230.85992187 286.62640625 -231.23046875 285.95703125 C-233.80901679 279.24659298 -233.34791063 271.65455426 -233.33683777 264.57104492 C-233.33910333 263.49996333 -233.34136888 262.42888174 -233.34370309 261.32534313 C-233.35001663 257.74813435 -233.34921544 254.17096372 -233.34838867 250.59375 C-233.35138175 248.02430167 -233.35478462 245.45485379 -233.35856628 242.88540649 C-233.36685276 236.63801023 -233.36962019 230.3906234 -233.37017866 224.14322209 C-233.37065462 219.06434193 -233.37271331 213.98546487 -233.37587929 208.90658569 C-233.3846791 194.49594217 -233.38929952 180.08530608 -233.38854881 165.67465985 C-233.38850886 164.89869202 -233.3884689 164.12272419 -233.38842773 163.32324219 C-233.38838685 162.54632361 -233.38834597 161.76940504 -233.38830385 160.96894348 C-233.3878972 148.3715837 -233.39747332 135.77425379 -233.4115661 123.17690265 C-233.42593402 110.23118656 -233.43283611 97.28548504 -233.43197232 84.33976078 C-233.43164058 77.07597147 -233.43437803 69.81221351 -233.44515038 62.5484314 C-233.45521346 55.71942422 -233.45491583 48.89048428 -233.44763374 42.06147385 C-233.44658706 39.55568724 -233.44895576 37.04989652 -233.4549942 34.54411697 C-233.46270479 31.12283908 -233.45807534 27.70179049 -233.45036316 24.28051758 C-233.45550672 23.28984881 -233.46065029 22.29918005 -233.46594971 21.27849102 C-233.42785696 13.62775823 -232.6872673 6.88294616 -228.203125 0.42578125 C-227.6875 -0.33734375 -227.171875 -1.10046875 -226.640625 -1.88671875 C-225.9290625 -2.72203125 -225.9290625 -2.72203125 -225.203125 -3.57421875 C-224.543125 -3.57421875 -223.883125 -3.57421875 -223.203125 -3.57421875 C-223.203125 -4.23421875 -223.203125 -4.89421875 -223.203125 -5.57421875 C-217.74177018 -7.87362919 -213.20173724 -9.01543777 -207.24278259 -8.97967529 C-206.10296829 -8.99070388 -206.10296829 -8.99070388 -204.94012743 -9.00195527 C-202.41560623 -9.02280479 -199.8915438 -9.02266164 -197.36694336 -9.02246094 C-195.54775223 -9.03312435 -193.72856826 -9.04507541 -191.90939331 -9.05821228 C-186.98132508 -9.09001765 -182.05336148 -9.10344796 -177.12520671 -9.11326122 C-171.9525274 -9.12640594 -166.77993645 -9.15554709 -161.60731506 -9.18267822 C-152.91441647 -9.22595878 -144.22153493 -9.2580766 -135.52856445 -9.28271484 C-125.50957977 -9.31116833 -115.49073306 -9.3533918 -105.47183698 -9.40395427 C-94.77222659 -9.45794216 -84.07259413 -9.50366905 -73.37293172 -9.54599094 C-70.3073467 -9.55853492 -67.24176971 -9.57238448 -64.17619133 -9.58644867 C-59.3342895 -9.60811778 -54.49239887 -9.62406789 -49.6504631 -9.63580513 C-47.88455032 -9.64086356 -46.11864142 -9.64765726 -44.35274315 -9.65642357 C-10.16695087 -9.82127455 -10.16695087 -9.82127455 0 0 Z " fill="#EEEFEF" transform="translate(364.203125,96.57421875)"/>
<path d="M0 0 C5.23457562 7.06667709 5.26494965 14.42091239 5.31738281 22.88745117 C5.33609688 24.14621126 5.35481094 25.40497135 5.3740921 26.70187569 C5.42464423 30.21125806 5.45537953 33.72056813 5.48176098 37.23020577 C5.50020841 39.49432921 5.52399951 41.75833605 5.54950714 44.02239037 C6.03347793 87.20930953 5.80827777 130.40189962 5.59314775 173.58981693 C5.54885524 182.73580857 5.52090306 191.88180382 5.49592948 201.02786571 C5.47073832 209.98141789 5.4342044 218.9348776 5.38884377 227.88835019 C5.36224132 233.17883765 5.34013769 238.46924395 5.32982635 243.75979042 C5.31989197 248.67814268 5.29582941 253.59622524 5.26089287 258.51446152 C5.25053533 260.3087195 5.24518432 262.10301476 5.24532509 263.89730263 C5.24079247 282.59761322 5.24079247 282.59761322 0.171875 291.17578125 C-6.02206796 297.04372721 -12.67069754 299.57494958 -21.0138092 299.57295227 C-21.82996199 299.57662896 -22.64611477 299.58030565 -23.48699945 299.58409375 C-26.23751436 299.59515711 -28.98799153 299.59897896 -31.73852539 299.6027832 C-33.70448935 299.609046 -35.67045212 299.61569263 -37.63641357 299.62269592 C-42.99003036 299.64012611 -48.3436382 299.65066381 -53.69727635 299.65890145 C-57.04185787 299.66404877 -60.3864366 299.67012471 -63.73101616 299.67641258 C-74.19456888 299.69547279 -84.65811452 299.70970052 -95.12168127 299.71802455 C-107.2009323 299.72779219 -119.27999985 299.75409598 -131.35918623 299.79452544 C-140.69347414 299.82469521 -150.02770951 299.83949437 -159.36204523 299.84280556 C-164.9375477 299.84515563 -170.51285435 299.85411015 -176.08830452 299.87926674 C-181.33731589 299.90256649 -186.58600279 299.9067729 -191.83505249 299.89650536 C-193.75829078 299.8960103 -195.68154514 299.90232167 -197.60473442 299.9160614 C-216.28944134 300.04204337 -216.28944134 300.04204337 -223.203125 295.42578125 C-224.193125 294.76578125 -225.183125 294.10578125 -226.203125 293.42578125 C-226.203125 292.76578125 -226.203125 292.10578125 -226.203125 291.42578125 C-226.863125 291.42578125 -227.523125 291.42578125 -228.203125 291.42578125 C-228.86505586 290.26817193 -229.50666646 289.09894295 -230.140625 287.92578125 C-230.50027344 287.27609375 -230.85992187 286.62640625 -231.23046875 285.95703125 C-233.80901679 279.24659298 -233.34791063 271.65455426 -233.33683777 264.57104492 C-233.33910333 263.49996333 -233.34136888 262.42888174 -233.34370309 261.32534313 C-233.35001663 257.74813435 -233.34921544 254.17096372 -233.34838867 250.59375 C-233.35138175 248.02430167 -233.35478462 245.45485379 -233.35856628 242.88540649 C-233.36685276 236.63801023 -233.36962019 230.3906234 -233.37017866 224.14322209 C-233.37065462 219.06434193 -233.37271331 213.98546487 -233.37587929 208.90658569 C-233.3846791 194.49594217 -233.38929952 180.08530608 -233.38854881 165.67465985 C-233.38850886 164.89869202 -233.3884689 164.12272419 -233.38842773 163.32324219 C-233.38838685 162.54632361 -233.38834597 161.76940504 -233.38830385 160.96894348 C-233.3878972 148.3715837 -233.39747332 135.77425379 -233.4115661 123.17690265 C-233.42593402 110.23118656 -233.43283611 97.28548504 -233.43197232 84.33976078 C-233.43164058 77.07597147 -233.43437803 69.81221351 -233.44515038 62.5484314 C-233.45521346 55.71942422 -233.45491583 48.89048428 -233.44763374 42.06147385 C-233.44658706 39.55568724 -233.44895576 37.04989652 -233.4549942 34.54411697 C-233.46270479 31.12283908 -233.45807534 27.70179049 -233.45036316 24.28051758 C-233.45550672 23.28984881 -233.46065029 22.29918005 -233.46594971 21.27849102 C-233.42785696 13.62775823 -232.6872673 6.88294616 -228.203125 0.42578125 C-227.6875 -0.33734375 -227.171875 -1.10046875 -226.640625 -1.88671875 C-225.9290625 -2.72203125 -225.9290625 -2.72203125 -225.203125 -3.57421875 C-224.543125 -3.57421875 -223.883125 -3.57421875 -223.203125 -3.57421875 C-223.203125 -4.23421875 -223.203125 -4.89421875 -223.203125 -5.57421875 C-217.74177018 -7.87362919 -213.20173724 -9.01543777 -207.24278259 -8.97967529 C-206.10296829 -8.99070388 -206.10296829 -8.99070388 -204.94012743 -9.00195527 C-202.41560623 -9.02280479 -199.8915438 -9.02266164 -197.36694336 -9.02246094 C-195.54775223 -9.03312435 -193.72856826 -9.04507541 -191.90939331 -9.05821228 C-186.98132508 -9.09001765 -182.05336148 -9.10344796 -177.12520671 -9.11326122 C-171.9525274 -9.12640594 -166.77993645 -9.15554709 -161.60731506 -9.18267822 C-152.91441647 -9.22595878 -144.22153493 -9.2580766 -135.52856445 -9.28271484 C-125.50957977 -9.31116833 -115.49073306 -9.3533918 -105.47183698 -9.40395427 C-94.77222659 -9.45794216 -84.07259413 -9.50366905 -73.37293172 -9.54599094 C-70.3073467 -9.55853492 -67.24176971 -9.57238448 -64.17619133 -9.58644867 C-59.3342895 -9.60811778 -54.49239887 -9.62406789 -49.6504631 -9.63580513 C-47.88455032 -9.64086356 -46.11864142 -9.64765726 -44.35274315 -9.65642357 C-10.16695087 -9.82127455 -10.16695087 -9.82127455 0 0 Z M-215.203125 20.42578125 C-215.65288081 22.3298297 -215.65288081 22.3298297 -215.5750618 24.55780888 C-215.58165164 25.42853977 -215.58824149 26.29927067 -215.59503102 27.19638735 C-215.58697462 28.15872567 -215.57891821 29.121064 -215.57061768 30.11256409 C-215.57388652 31.13037191 -215.57715536 32.14817973 -215.58052325 33.19683021 C-215.5878439 36.62949702 -215.57360859 40.0617436 -215.55957031 43.49438477 C-215.56036061 45.94622877 -215.56245611 48.39807265 -215.56576538 50.84991455 C-215.57037928 56.83115018 -215.56106695 62.81221967 -215.54547742 68.79342479 C-215.52797113 75.75230191 -215.52651887 82.71115395 -215.52586183 89.67004966 C-215.52417254 102.08206276 -215.50834209 114.49401747 -215.484375 126.90600586 C-215.46111081 138.96265141 -215.44694975 151.01925992 -215.44335938 163.07592773 C-215.44313661 163.81859878 -215.44291384 164.56126983 -215.44268432 165.32644606 C-215.44224174 166.82246977 -215.44179971 168.31849349 -215.44135825 169.8145172 C-215.44113869 170.55241415 -215.44091912 171.29031111 -215.4406929 172.05056858 C-215.44047692 172.78654798 -215.44026093 173.52252739 -215.4400384 174.2808092 C-215.43634118 185.75350832 -215.42498164 197.22620144 -215.4125625 208.69889398 C-215.40812122 212.86373892 -215.40468545 217.02858328 -215.40194038 221.19342966 C-215.39710263 228.41406867 -215.38701464 235.63467573 -215.37111282 242.8553009 C-215.36657481 245.25920285 -215.36374763 247.66310869 -215.36270523 250.06701469 C-215.3609704 253.33336653 -215.35311642 256.59964513 -215.34356689 259.86598206 C-215.34443338 260.8305511 -215.34529986 261.79512015 -215.3461926 262.78891855 C-215.34235145 263.6570417 -215.33851031 264.52516485 -215.33455276 265.41959476 C-215.33330627 266.1745338 -215.33205977 266.92947283 -215.3307755 267.7072888 C-215.38874926 269.4577517 -215.38874926 269.4577517 -214.203125 270.42578125 C-211.62562736 270.52577582 -209.07486007 270.56018926 -206.49682617 270.55276489 C-205.67996684 270.55432488 -204.86310751 270.55588487 -204.02149487 270.55749214 C-201.26300989 270.56150557 -198.50457921 270.55831118 -195.74609375 270.55517578 C-193.77715014 270.55652967 -191.80820679 270.55830953 -189.83926392 270.56048584 C-184.4757844 270.56506165 -179.11232402 270.56327001 -173.74884415 270.56010675 C-168.14921261 270.55758391 -162.54958277 270.55992048 -156.94995117 270.56149292 C-147.54443058 270.56331484 -138.13891784 270.56090773 -128.73339844 270.55615234 C-117.84241323 270.55070968 -106.95144675 270.55247232 -96.060462 270.55797875 C-86.72801776 270.56250925 -77.39557917 270.56316074 -68.06313419 270.56054008 C-62.48124446 270.55897696 -56.89936354 270.5587845 -51.31747437 270.56207657 C-46.07104995 270.56495437 -40.82464978 270.56298128 -35.578228 270.55718231 C-33.64680395 270.55585422 -31.71537788 270.55624965 -29.78395462 270.55844498 C-27.15908298 270.56115457 -24.53429035 270.55777771 -21.90942383 270.55276489 C-21.13482913 270.55499561 -20.36023443 270.55722634 -19.56216717 270.55952466 C-16.09198706 270.86208547 -16.09198706 270.86208547 -13.203125 269.42578125 C-13.10504001 268.09330273 -13.07573723 266.75567789 -13.07449055 265.41959476 C-13.06965388 264.11741004 -13.06965388 264.11741004 -13.0647195 262.78891855 C-13.0662681 261.82434951 -13.0678167 260.85978047 -13.06941223 259.86598206 C-13.0660139 258.34161031 -13.0660139 258.34161031 -13.06254691 256.78644317 C-13.05617519 253.35314158 -13.05703829 249.91987914 -13.05786133 246.48657227 C-13.05487182 244.0364985 -13.05146978 241.5864252 -13.04768372 239.13635254 C-13.03974085 233.15537431 -13.03662815 227.1744117 -13.03607134 221.19342966 C-13.03559694 216.33410546 -13.033546 211.47478452 -13.03037071 206.61546135 C-13.02155978 192.8524546 -13.01695202 179.08945566 -13.01770119 165.32644606 C-13.01774114 164.58377502 -13.0177811 163.84110397 -13.01782227 163.07592773 C-13.01788359 161.9605683 -13.01788359 161.9605683 -13.01794615 160.82267635 C-13.01835275 148.76723907 -13.00878082 136.711833 -12.9946839 124.65640474 C-12.98033895 112.29176551 -12.97341267 99.92714151 -12.97427768 87.56249374 C-12.9746103 80.61513606 -12.97183483 73.6678111 -12.96109962 66.72046089 C-12.95107291 60.18951148 -12.95131067 53.65861959 -12.95861626 47.12766266 C-12.95966729 44.72417793 -12.95726876 42.32068897 -12.9512558 39.91721153 C-12.94360586 36.64891256 -12.94813389 33.38085733 -12.95588684 30.11256409 C-12.9481715 28.6690566 -12.9481715 28.6690566 -12.94030029 27.19638735 C-12.94489908 26.32565645 -12.94949788 25.45492556 -12.95423603 24.55780888 C-12.95401866 23.80270749 -12.95380129 23.04760611 -12.95357734 22.26962286 C-13.04706907 20.17791566 -13.04706907 20.17791566 -15.203125 18.42578125 C-17.80458461 18.2282331 -20.29967923 18.15650829 -22.90232849 18.17181396 C-23.70638046 18.16869398 -24.51043243 18.165574 -25.3388496 18.16235948 C-28.04815733 18.15434662 -30.75724312 18.16071586 -33.46655273 18.16699219 C-35.40284355 18.16428376 -37.33913333 18.16072367 -39.27542114 18.15637207 C-44.54602275 18.14722753 -49.81654635 18.15080097 -55.08714938 18.15713024 C-60.5937514 18.1621803 -66.10034658 18.1575015 -71.60694885 18.15435791 C-80.85687463 18.15071505 -90.10676851 18.15552542 -99.35668945 18.16503906 C-110.0607911 18.175921 -120.76481656 18.1724012 -131.46891636 18.16138625 C-140.64685356 18.15231864 -149.82476778 18.15102562 -159.00270802 18.15626359 C-164.4896409 18.1593866 -169.97653795 18.15978363 -175.46346855 18.15319061 C-180.62211687 18.14742554 -185.7806667 18.15139866 -190.93930435 18.16297913 C-192.83602421 18.16563035 -194.73275231 18.16485278 -196.62946892 18.1604538 C-199.21207159 18.15501502 -201.79435567 18.16181212 -204.37693787 18.17181396 C-205.13335192 18.16735252 -205.88976597 18.16289108 -206.66910166 18.15829444 C-210.39903827 18.18644834 -212.01587362 18.300947 -215.203125 20.42578125 Z " fill="#1C1C1C" transform="translate(364.203125,96.57421875)"/>
<path d="M0 0 C0.74652832 -0.00628418 1.49305664 -0.01256836 2.26220703 -0.01904297 C6.64989674 0.08444502 9.98581509 0.37262886 13.1875 3.5 C13.66021397 6.41403285 13.80736731 8.66346376 13.6875 11.5625 C13.65765015 12.70996704 13.65765015 12.70996704 13.62719727 13.88061523 C13.26897919 22.85887157 11.71778004 30.13400927 5.33984375 36.80859375 C-0.69360071 41.5499394 -8.32797545 42.93513022 -15.8125 43.5 C-15.1525 44.49 -14.4925 45.48 -13.8125 46.5 C-6.96084393 47.56049912 -0.86721948 46.80257426 5.1875 43.5 C1.57753422 53.97079081 -7.55969974 62.32175637 -16.96875 67.7421875 C-25.01908439 71.51922795 -34.07088821 71.77629358 -42.8125 72.5 C-39.81439349 75.70487248 -37.93066737 77.31943491 -33.4296875 77.703125 C-26.96880909 77.81356737 -21.78542374 76.97765725 -15.8125 74.5 C-25.14766909 88.10267497 -35.9866929 98.22473097 -51.8125 103.5 C-53.14775717 103.57973476 -54.48662083 103.60771338 -55.82421875 103.59765625 C-56.96020508 103.59282227 -56.96020508 103.59282227 -58.11914062 103.58789062 C-59.29766602 103.57532227 -59.29766602 103.57532227 -60.5 103.5625 C-61.29728516 103.55798828 -62.09457031 103.55347656 -62.91601562 103.54882812 C-64.88154257 103.5370585 -66.84703085 103.51912348 -68.8125 103.5 C-64.87257816 107.59706972 -61.53136302 108.62260444 -55.875 108.75 C-51.85364041 108.67786799 -48.55424422 108.07547125 -44.8125 106.5 C-46.35411747 110.41196571 -48.77558035 112.43404205 -52 115.0625 C-52.92167969 115.82691406 -53.84335937 116.59132813 -54.79296875 117.37890625 C-60.98880616 121.73122153 -66.37834288 122.96641345 -73.75 123.1875 C-74.52923828 123.22166016 -75.30847656 123.25582031 -76.11132812 123.29101562 C-78.01124393 123.3726071 -79.91184403 123.43799885 -81.8125 123.5 C-78.29551547 125.86366708 -75.72472453 126.9058517 -71.5 127.1875 C-70.61699219 127.25324219 -69.73398438 127.31898438 -68.82421875 127.38671875 C-68.16035156 127.42410156 -67.49648437 127.46148437 -66.8125 127.5 C-71.257068 133.05571 -76.99493912 135.70393566 -83.8125 137.5 C-89.14249337 138.04099125 -94.47412478 137.80485645 -99.8125 137.5 C-99.28390805 133.21638116 -98.34317221 130.17808104 -96.1171875 126.48828125 C-95.56981934 125.57127441 -95.02245117 124.65426758 -94.45849609 123.70947266 C-93.87406738 122.75347168 -93.28963867 121.7974707 -92.6875 120.8125 C-92.09146973 119.8229834 -91.49543945 118.8334668 -90.88134766 117.81396484 C-89.2026935 115.03577158 -87.51081266 112.26620736 -85.8125 109.5 C-85.1421875 108.40300781 -84.471875 107.30601562 -83.78125 106.17578125 C-82.16448606 103.58816642 -80.50500823 101.03876235 -78.8125 98.5 C-78.39226562 97.86835938 -77.97203125 97.23671875 -77.5390625 96.5859375 C-76.09683571 94.42658137 -74.64402227 92.27473598 -73.1875 90.125 C-72.73165527 89.4458252 -72.27581055 88.76665039 -71.80615234 88.06689453 C-69.10868325 84.12594604 -66.23414499 80.85488119 -62.8125 77.5 C-61.50596294 75.75534273 -60.23472344 73.98369767 -59 72.1875 C-55.95851376 67.92255876 -52.78900391 64.21765245 -48.96484375 60.64453125 C-47.05966925 58.74627208 -45.31779555 56.80067466 -43.5625 54.765625 C-39.83939624 50.47461535 -35.90248783 46.4416851 -31.875 42.4375 C-31.21048828 41.76912109 -30.54597656 41.10074219 -29.86132812 40.41210938 C-25.91294906 36.47138962 -21.86011169 32.71425389 -17.62084961 29.08789062 C-14.88400226 26.68469701 -12.35529215 24.10636195 -9.8125 21.5 C-32.85802979 35.94918138 -54.29846209 55.94000606 -70.8125 77.5 C-71.65554687 78.54220703 -71.65554687 78.54220703 -72.515625 79.60546875 C-77.41310983 85.70443935 -81.7718691 92.16961229 -86.16796875 98.6328125 C-88.27416208 101.72729079 -90.43683866 104.77527383 -92.625 107.8125 C-95.56963734 111.99402557 -97.99831632 116.35963603 -100.3984375 120.87109375 C-101.73105878 123.34859133 -103.10960955 125.77876057 -104.5625 128.1875 C-105.14257812 129.15236328 -105.14257812 129.15236328 -105.734375 130.13671875 C-106.26804688 130.81154297 -106.26804688 130.81154297 -106.8125 131.5 C-107.4725 131.5 -108.1325 131.5 -108.8125 131.5 C-109.46384925 129.93979133 -110.10832964 128.37671421 -110.75 126.8125 C-111.10964844 125.94238281 -111.46929687 125.07226562 -111.83984375 124.17578125 C-113.7297391 118.97667154 -113.99489653 114.05893462 -114 108.5625 C-114.01224609 107.87220703 -114.02449219 107.18191406 -114.03710938 106.47070312 C-114.04956114 102.09183186 -113.42277921 98.56706884 -111.8125 94.5 C-109.67532738 97.70575893 -108.35199999 100.886415 -106.91015625 104.44140625 C-105.8532859 106.81457464 -105.8532859 106.81457464 -102.8125 108.5 C-103.2765625 107.51 -103.2765625 107.51 -103.75 106.5 C-105.04455862 102.84477567 -105.53067913 99.34062861 -105.8125 95.5 C-105.87824219 94.66210938 -105.94398438 93.82421875 -106.01171875 92.9609375 C-106.46114892 82.20560855 -102.56352117 71.55019632 -96.8125 62.5 C-95.8225 61.84 -94.8325 61.18 -93.8125 60.5 C-93.84730469 61.72976562 -93.88210937 62.95953125 -93.91796875 64.2265625 C-93.94612045 65.85936127 -93.97341913 67.4921749 -94 69.125 C-94.02513672 69.93324219 -94.05027344 70.74148437 -94.07617188 71.57421875 C-94.1389321 76.72055759 -93.4766735 79.95482211 -90.8125 84.5 C-90.8125 85.16 -90.8125 85.82 -90.8125 86.5 C-90.1525 86.5 -89.4925 86.5 -88.8125 86.5 C-88.97363281 85.97664063 -89.13476562 85.45328125 -89.30078125 84.9140625 C-92.28277534 70.84633467 -88.53644332 56.74330522 -81.12890625 44.78125 C-77.42788874 39.42593153 -73.25455992 34.67913259 -68.6875 30.0625 C-68.19693115 29.5662915 -67.7063623 29.07008301 -67.20092773 28.55883789 C-63.95663958 25.37862104 -60.63861632 22.90125698 -56.8125 20.5 C-57.1425 21.758125 -57.4725 23.01625 -57.8125 24.3125 C-59.38905529 31.39022695 -59.40244526 38.42792348 -57.8125 45.5 C-57.1525 45.5 -56.4925 45.5 -55.8125 45.5 C-55.73 44.2625 -55.6475 43.025 -55.5625 41.75 C-54.35543939 31.23369114 -50.5815105 20.53598441 -42.4453125 13.43359375 C-30.35320162 4.55288917 -14.90049972 0.09479078 0 0 Z " fill="#111111" transform="translate(317.8125,136.5)"/>
<path d="M0 0 C50.49 0 100.98 0 153 0 C153.33 1.65 153.66 3.3 154 5 C152.20962198 6.79037802 149.54035116 6.13008678 147.12269592 6.13371277 C145.20654228 6.14011024 145.20654228 6.14011024 143.25167847 6.14663696 C141.82281491 6.1462874 140.39395138 6.14582584 138.96508789 6.14526367 C137.47066666 6.14825354 135.97624621 6.15165566 134.48182678 6.15544128 C130.41162948 6.16430306 126.34145317 6.16662031 122.27124715 6.16725707 C118.87891015 6.16820436 115.48657809 6.17188057 112.09424299 6.17542917 C104.09383199 6.18358199 96.09343225 6.18601265 88.09301758 6.18530273 C79.82749951 6.18470171 71.56204665 6.19525656 63.29654509 6.2110464 C56.21119886 6.22410172 49.12587401 6.22948748 42.04051584 6.22884732 C37.80387899 6.22859174 33.56730005 6.23147576 29.33067513 6.24202538 C25.34739395 6.2516727 21.36422646 6.25180885 17.38094139 6.24450874 C15.91596436 6.24345869 14.45098037 6.24585055 12.98601532 6.2518692 C10.99212025 6.2595326 8.99818682 6.25377075 7.00428772 6.24723816 C5.88652986 6.24778293 4.76877199 6.24832769 3.61714268 6.24888897 C1 6 1 6 -1 4 C-0.67 2.68 -0.34 1.36 0 0 Z " fill="#161616" transform="translate(173,326)"/>
<path d="M0 0 C0 1.32 0 2.64 0 4 C0.33 4.99 0.66 5.98 1 7 C33.67 7.33 66.34 7.66 100 8 C100 8.66 100 9.32 100 10 C101.32 9.67 102.64 9.34 104 9 C104.0825 9.61875 104.165 10.2375 104.25 10.875 C104.81258459 13.18437567 104.81258459 13.18437567 107.0625 14.25 C107.701875 14.4975 108.34125 14.745 109 15 C107.0625 15.5625 107.0625 15.5625 105 16 C104.67 15.67 104.34 15.34 104 15 C102.41886387 14.89190884 100.83293938 14.85315956 99.24815369 14.84178162 C98.22025223 14.8319928 97.19235077 14.82220398 96.13330078 14.81211853 C94.42750854 14.80348534 94.42750854 14.80348534 92.68725586 14.79467773 C91.49717422 14.78477814 90.30709259 14.77487854 89.08094788 14.76467896 C85.80839691 14.73842897 82.53585135 14.71659269 79.26325679 14.69667697 C75.84658439 14.67485467 72.42995703 14.64744767 69.01332092 14.62062073 C62.53934001 14.57064288 56.06533416 14.52572302 49.59130436 14.48259836 C42.22258881 14.43326941 34.85391843 14.37833523 27.48524654 14.32291877 C12.32353977 14.20902059 -2.83820952 14.10219871 -18 14 C-18.66 12.68 -19.32 11.36 -20 10 C-9.92909175 -4.60128642 -9.92909175 -4.60128642 0 0 Z " fill="#F5F5F7" transform="translate(215,299)"/>
<path d="M0 0 C0.99 0.495 0.99 0.495 2 1 C-10.6095287 13.78252528 -10.6095287 13.78252528 -14.875 17.375 C-24.2876963 25.38281625 -33.08739467 34.51813495 -41 44 C-41.48210937 44.54269531 -41.96421875 45.08539063 -42.4609375 45.64453125 C-46.4290152 50.12698939 -49.85179691 54.92419593 -53.265625 59.83984375 C-54.12414062 60.90912109 -54.12414062 60.90912109 -55 62 C-55.66 62 -56.32 62 -57 62 C-57.37511719 62.80244141 -57.37511719 62.80244141 -57.7578125 63.62109375 C-59.29262392 66.56040241 -61.06605767 69.28282488 -62.875 72.0625 C-63.6829168 73.31079354 -64.49017201 74.55951545 -65.296875 75.80859375 C-65.73064453 76.48003418 -66.16441406 77.15147461 -66.61132812 77.84326172 C-78.54454921 95.99252646 -78.54454921 95.99252646 -89 115 C-91.62901288 113.47793991 -93.84365964 112.15634036 -96 110 C-95.63648438 109.40574219 -95.27296875 108.81148438 -94.8984375 108.19921875 C-92.25272276 103.83718137 -89.71218813 99.47275791 -87.375 94.9375 C-83.36567729 87.49010373 -78.30498803 80.75324748 -73.36425781 73.90771484 C-71.67866234 71.55065632 -70.05925238 69.15129037 -68.4375 66.75 C-64.43666337 61.02617533 -59.89016136 55.76735372 -55.30957031 50.50488281 C-54.18680172 49.21466178 -53.0729622 47.91667997 -51.9609375 46.6171875 C-40.37133718 33.36533375 -27.858023 20.6169436 -13.63623047 10.19970703 C-11.90282643 8.92875098 -10.18666627 7.6368174 -8.47265625 6.33984375 C-5.65863025 4.212725 -2.83319887 2.10154861 0 0 Z " fill="#EBEBED" transform="translate(307,157)"/>
<path d="M0 0 C1.85695197 0.00138269 1.85695197 0.00138269 3.75141811 0.00279331 C4.43830934 0.00193889 5.12520056 0.00108446 5.83290666 0.00020415 C8.15150846 -0.00145262 10.47003908 0.00407389 12.7886343 0.00952244 C14.44393315 0.00980429 16.09923213 0.00964661 17.75453091 0.00907993 C22.26260324 0.00879189 26.7706492 0.01468964 31.27871537 0.02165389 C35.98461128 0.02788638 40.69050773 0.02849114 45.39640713 0.0296793 C54.31412025 0.03279293 63.23182118 0.04100673 72.14952892 0.05102879 C82.29929688 0.06218895 92.44906541 0.06770013 102.59883797 0.07272422 C123.48364344 0.08318932 144.36843791 0.10078937 165.25323391 0.12304783 C165.25323391 1.44304783 165.25323391 2.76304783 165.25323391 4.12304783 C164.25323391 5.12304783 164.25323391 5.12304783 161.52208519 5.24609566 C160.29149156 5.24517386 159.06089792 5.24425207 157.79301357 5.24330235 C157.1102059 5.24415677 156.42739823 5.24501119 155.72389942 5.24589151 C153.419117 5.24754826 151.11440619 5.2420218 148.80963039 5.23657322 C147.16418363 5.23629136 145.51873675 5.23644905 143.87329006 5.23701572 C139.39207632 5.23730376 134.9108891 5.23140604 130.42968154 5.22444177 C125.75181286 5.21820925 121.07394363 5.21760451 116.39607143 5.21641636 C107.53148223 5.21330274 98.66690529 5.20508894 89.80232149 5.19506687 C79.71301189 5.18390668 69.62370171 5.17839552 59.53438747 5.17337143 C38.77399609 5.16290635 18.01361577 5.14530632 -2.74676609 5.12304783 C-3.30926609 3.18554783 -3.30926609 3.18554783 -3.74676609 1.12304783 C-2.74676609 0.12304783 -2.74676609 0.12304783 0 0 Z " fill="#0F0F0F" transform="translate(168.74676609039307,339.8769521713257)"/>
<path d="M0 0 C1.54722952 0.00138269 1.54722952 0.00138269 3.12571621 0.00279331 C4.30507244 0.00141865 5.48442867 0.00004398 6.69952297 -0.00137234 C8.65778515 0.00402058 8.65778515 0.00402058 10.65560818 0.00952244 C12.03504846 0.00980431 13.4144889 0.00964658 14.7939291 0.00907993 C18.54996147 0.00879195 22.30596218 0.01468878 26.06198716 0.02165389 C29.98312073 0.02788732 33.90425496 0.02849122 37.82539272 0.0296793 C45.25563639 0.03279265 52.68586542 0.04100608 60.11610264 0.05102879 C68.57303667 0.06218982 77.02997138 0.06770035 85.48691094 0.07272422 C102.88812254 0.08318869 120.28931987 0.1007882 137.69052029 0.12304783 C138.25302029 2.06054783 138.25302029 2.06054783 138.69052029 4.12304783 C137.69052029 5.12304783 137.69052029 5.12304783 135.39665794 5.24609566 C134.37254594 5.24517386 133.34843393 5.24425207 132.29328823 5.24330235 C130.53687511 5.24536434 130.53687511 5.24536434 128.7449789 5.24746799 C127.44882153 5.24387272 126.15266415 5.24027744 124.81722927 5.23657322 C123.44764108 5.23629135 122.07805273 5.23644908 120.70846462 5.23701572 C116.97929081 5.2373037 113.25014888 5.23140691 109.5209825 5.22444177 C105.62787616 5.2182083 101.73476916 5.21760444 97.84165859 5.21641636 C90.46453882 5.21330302 83.0874338 5.2050896 75.71032053 5.19506687 C67.31384486 5.1839058 58.9173685 5.1783953 50.52088726 5.17337143 C33.24408972 5.16290699 15.96730656 5.14530751 -1.30947971 5.12304783 C-1.96947971 3.80304783 -2.62947971 2.48304783 -3.30947971 1.12304783 C-2.30947971 0.12304783 -2.30947971 0.12304783 0 0 Z " fill="#0D0C0D" transform="translate(182.30947971343994,313.8769521713257)"/>
<path d="M0 0 C0.92212784 0.00359528 1.84425568 0.00719055 2.79432678 0.01089478 C4.24295105 0.01067574 4.24295105 0.01067574 5.72084045 0.01045227 C8.92952175 0.01115182 12.1381458 0.0189462 15.34681702 0.02676392 C17.56499195 0.02862794 19.78316729 0.03005192 22.00134277 0.03105164 C27.85231148 0.03487801 33.70325554 0.04470931 39.55421448 0.05575562 C45.51958381 0.06596717 51.4849571 0.07054871 57.45033264 0.07559204 C69.16453621 0.08633147 80.87872144 0.10340932 92.59291077 0.12442017 C92.26291077 1.77442017 91.93291077 3.42442017 91.59291077 5.12442017 C59.58291077 5.12442017 27.57291077 5.12442017 -5.40708923 5.12442017 C-6.06708923 3.80442017 -6.72708923 2.48442017 -7.40708923 1.12442017 C-5.47484458 -0.80782448 -2.57098534 0.00423579 0 0 Z " fill="#1D1D1D" transform="translate(221.40708923339844,301.8755798339844)"/>
<path d="M0 0 C2.375 1.5625 2.375 1.5625 4 3 C3.55491553 8.2519968 3.17575746 11.64177966 0 16 C-2.84765625 18.3515625 -2.84765625 18.3515625 -6.0625 20.625 C-10.56276651 23.78910573 -10.56276651 23.78910573 -14 28 C-14.66 28 -15.32 28 -16 28 C-15.54092969 22.5394795 -14.93104158 17.10812964 -14.125 11.6875 C-13.98320312 10.72199219 -13.84140625 9.75648438 -13.6953125 8.76171875 C-12.74639543 4.99270544 -11.31858375 2.00030492 -8.1875 -0.375 C-5.12329768 -1.25048638 -3.05867351 -0.82839074 0 0 Z " fill="#0F0F10" transform="translate(209,280)"/>
<path d="M0 0 C0.83283114 3.09998257 1.17420942 5.77712574 1 9 C0.67 9.33 0.34 9.66 0 10 C-0.10146489 11.39159306 -0.13396729 12.78828489 -0.1386652 14.18356419 C-0.14413964 15.09123808 -0.14961409 15.99891198 -0.15525442 16.93409115 C-0.15623253 17.94282487 -0.15721064 18.95155858 -0.15821838 19.99085999 C-0.16562535 21.58472704 -0.16562535 21.58472704 -0.17318195 23.21079344 C-0.18864111 26.80076492 -0.19694023 30.3907184 -0.20532227 33.98071289 C-0.21489418 36.54240581 -0.22490385 39.10409712 -0.23532104 41.66578674 C-0.25681883 47.19607574 -0.27524861 52.72636167 -0.29092598 58.25667 C-0.31359831 66.25265381 -0.34174474 74.2486109 -0.37124526 82.2445721 C-0.41895359 95.21617756 -0.46220895 108.18779393 -0.50268555 121.15942383 C-0.54202401 133.76327361 -0.58344625 146.36711369 -0.62768555 158.97094727 C-0.63040982 159.74730339 -0.63313409 160.52365952 -0.63594092 161.32354159 C-0.64962012 165.2181296 -0.66334045 169.11271747 -0.67708123 173.00730526 C-0.7910969 205.33818351 -0.89789495 237.66908187 -1 270 C-1.33 270 -1.66 270 -2 270 C-2.04578723 236.75892817 -2.08102419 203.51786419 -2.10213066 170.27676782 C-2.10463204 166.35150402 -2.10722069 162.42624027 -2.10986328 158.50097656 C-2.1103879 157.71953398 -2.11091252 156.93809139 -2.11145304 156.13296872 C-2.12015339 143.48337131 -2.13592133 130.83379209 -2.15430559 118.18420547 C-2.17301493 105.20258552 -2.18411891 92.22097509 -2.18817699 79.23934221 C-2.1909199 71.23031446 -2.19958028 63.22133815 -2.21583293 55.21232623 C-2.22766402 49.0688876 -2.22890872 42.92548811 -2.22621536 36.78203964 C-2.22676575 34.26335712 -2.23074616 31.74467266 -2.23841095 29.22600174 C-2.24836408 25.78678601 -2.24596735 22.34779018 -2.24050903 18.90856934 C-2.24633472 17.91244361 -2.2521604 16.91631789 -2.25816262 15.89000654 C-2.23396721 10.24792362 -1.60729611 5.41474659 0 0 Z " fill="#ACACAD" transform="translate(133,102)"/>
<path d="M0 0 C2.375 1.625 2.375 1.625 4 4 C4.45319325 7.17235276 4.52990283 9.06487736 2.9375 11.875 C-0.15097604 13.66830867 -2.51143969 13.42841969 -6 13 C-8.8520847 11.02547983 -9.81895125 9.90524375 -10.5 6.5 C-9.33827182 0.69135908 -5.5534724 -0.92557873 0 0 Z " fill="#EFF0F1" transform="translate(253,374)"/>
<path d="M0 0 C0.66 0.33 1.32 0.66 2 1 C-14.45248671 17.6782068 -14.45248671 17.6782068 -23 24 C-23.99 22.68 -24.98 21.36 -26 20 C-17.42136505 13.21069571 -8.7871105 6.51791164 0 0 Z " fill="#E2E2E2" transform="translate(307,157)"/>
<path d="M0 0 C2 0.3125 2 0.3125 4 1 C4.99 1 5.98 1 7 1 C4.6163187 5.34170523 2.21880117 9.2064129 -1 13 C-1.99 12.67 -2.98 12.34 -4 12 C-3.91253716 10.56138706 -3.80434652 9.12402492 -3.6875 7.6875 C-3.62949219 6.88699219 -3.57148438 6.08648437 -3.51171875 5.26171875 C-2.91233474 2.61253293 -2.15545452 1.61792142 0 0 Z " fill="#F2F2F3" transform="translate(244,217)"/>
<path d="M0 0 C1.22077078 2.88545821 1.01784488 3.95340503 -0.125 6.9375 C-2.96634931 11.57837055 -6.57319927 14.88484393 -11 18 C-11.66 17.67 -12.32 17.34 -13 17 C-12.3125 14.625 -12.3125 14.625 -11 12 C-9.35636866 11.27840576 -7.68949614 10.60648579 -6 10 C-5.67 9.01 -5.34 8.02 -5 7 C-4.34 7 -3.68 7 -3 7 C-2.690625 6.030625 -2.38125 5.06125 -2.0625 4.0625 C-1 1 -1 1 0 0 Z " fill="#3E3E3E" transform="translate(367,376)"/>
<path d="M0 0 C2.29141286 -0.05384521 4.58318188 -0.09272087 6.875 -0.125 C8.78925781 -0.15980469 8.78925781 -0.15980469 10.7421875 -0.1953125 C14 0 14 0 16 2 C15.01 3.485 15.01 3.485 14 5 C9.41924966 5.53442087 6.40801381 5.61201377 2.5 3.0625 C1.675 2.381875 0.85 1.70125 0 1 C0 0.67 0 0.34 0 0 Z " fill="#DCDDDE" transform="translate(235,259)"/>
<path d="M0 0 C0.66 0.33 1.32 0.66 2 1 C1.566875 1.7734375 1.566875 1.7734375 1.125 2.5625 C-0.15549263 5.14213157 -0.15549263 5.14213157 -0.9375 8.6875 C-1.288125 9.780625 -1.63875 10.87375 -2 12 C-2.99 12.33 -3.98 12.66 -5 13 C-5.33 13.66 -5.66 14.32 -6 15 C-5.34 15.33 -4.68 15.66 -4 16 C-8.75 19 -8.75 19 -11 19 C-11 18.34 -11 17.68 -11 17 C-10.34 17 -9.68 17 -9 17 C-9.268125 16.443125 -9.53625 15.88625 -9.8125 15.3125 C-9.9053125 14.1678125 -9.9053125 14.1678125 -10 13 C-7.8125 10.5625 -7.8125 10.5625 -5 8 C-2.64639602 5.25412869 -1.14576613 3.43729839 0 0 Z " fill="#E5E6E6" transform="translate(328,164)"/>
<path d="M0 0 C0.66 0.33 1.32 0.66 2 1 C-2.29 5.29 -6.58 9.58 -11 14 C-12.32 13.01 -13.64 12.02 -15 11 C-10.05 7.37 -5.1 3.74 0 0 Z " fill="#E1E1E1" transform="translate(307,157)"/>
<path d="M0 0 C0 3 0 3 -1.75 4.82421875 C-2.4925 5.43910156 -3.235 6.05398437 -4 6.6875 C-4.7425 7.31011719 -5.485 7.93273437 -6.25 8.57421875 C-6.8275 9.04472656 -7.405 9.51523438 -8 10 C-8.66 9.34 -9.32 8.68 -10 8 C-9.34 6.68 -8.68 5.36 -8 4 C-9.65 4 -11.3 4 -13 4 C-13 3.67 -13 3.34 -13 3 C-12.22914063 2.86722656 -11.45828125 2.73445312 -10.6640625 2.59765625 C-9.66117187 2.42105469 -8.65828125 2.24445313 -7.625 2.0625 C-6.62726563 1.88847656 -5.62953125 1.71445313 -4.6015625 1.53515625 C-2.03090344 1.12287938 -2.03090344 1.12287938 0 0 Z " fill="#2A2B2D" transform="translate(272,243)"/>
<path d="M0 0 C0.33 0.66 0.66 1.32 1 2 C1.66 2.33 2.32 2.66 3 3 C2.01 7.29 1.02 11.58 0 16 C-0.66 16 -1.32 16 -2 16 C-2.66 13.69 -3.32 11.38 -4 9 C-3.34 9 -2.68 9 -2 9 C-1.34 6.03 -0.68 3.06 0 0 Z " fill="#EAEBED" transform="translate(262,166)"/>
<path d="M0 0 C0 3.39593478 -0.52165948 4.06619881 -2.5 6.6875 C-2.9640625 7.31011719 -3.428125 7.93273437 -3.90625 8.57421875 C-4.2671875 9.04472656 -4.628125 9.51523438 -5 10 C-5.99 8.68 -6.98 7.36 -8 6 C-5.68055212 2.52082818 -3.73630036 1.70570234 0 0 Z " fill="#1E1E21" transform="translate(322,180)"/>
<path d="M0 0 C0.33 0.99 0.66 1.98 1 3 C0.01 3.99 -0.98 4.98 -2 6 C-1.67 6.99 -1.34 7.98 -1 9 C-2.65 9.33 -4.3 9.66 -6 10 C-6 5.29930854 -5.08436373 4.35651347 -2 1 C-1.34 0.67 -0.68 0.34 0 0 Z " fill="#1A191A" transform="translate(311,155)"/>
<path d="M0 0 C0.66 0.33 1.32 0.66 2 1 C-0.31 3.64 -2.62 6.28 -5 9 C-7 5 -7 5 -7 3 C-4.69631264 1.93347808 -2.35981813 0.93578995 0 0 Z " fill="#222327" transform="translate(300,211)"/>
<path d="M0 0 C1.98 0.99 1.98 0.99 4 2 C4 2.99 4 3.98 4 5 C4.66 5.33 5.32 5.66 6 6 C3.525 7.485 3.525 7.485 1 9 C0.67 6.03 0.34 3.06 0 0 Z " fill="#7C7C7F" transform="translate(199,293)"/>
<path d="M0 0 C1.32 0.66 2.64 1.32 4 2 C3.67 3.32 3.34 4.64 3 6 C1.35 5.67 -0.3 5.34 -2 5 C-1.125 1.125 -1.125 1.125 0 0 Z " fill="#D1D1D1" transform="translate(249,99)"/>
<path d="M0 0 C0.66 0 1.32 0 2 0 C2 0.66 2 1.32 2 2 C3.32 2.33 4.64 2.66 6 3 C6 3.66 6 4.32 6 5 C4.02 5.33 2.04 5.66 0 6 C-0.38218767 4.34385343 -0.71395102 2.67542976 -1 1 C-0.67 0.67 -0.34 0.34 0 0 Z " fill="#F1F1F3" transform="translate(218,256)"/>
<path d="M0 0 C2.0625 0.4375 2.0625 0.4375 4 1 C2.68 2.65 1.36 4.3 0 6 C-0.99 5.67 -1.98 5.34 -3 5 C-1.125 1.125 -1.125 1.125 0 0 Z " fill="#F6F6F6" transform="translate(291,169)"/>
<path d="M0 0 C0.66 1.32 1.32 2.64 2 4 C2.66 4.66 3.32 5.32 4 6 C2.625 8 2.625 8 1 10 C0.34 10 -0.32 10 -1 10 C-0.67 6.7 -0.34 3.4 0 0 Z " fill="#2F3031" transform="translate(194,298)"/>
<path d="M0 0 C2.31 0 4.62 0 7 0 C5.35 1.65 3.7 3.3 2 5 C1.67 4.34 1.34 3.68 1 3 C0.34 2.67 -0.32 2.34 -1 2 C-0.67 1.34 -0.34 0.68 0 0 Z " fill="#323335" transform="translate(244,264)"/>
<path d="M0 0 C0.66 0.33 1.32 0.66 2 1 C1.67 1.99 1.34 2.98 1 4 C0.34 4 -0.32 4 -1 4 C-1.33 4.66 -1.66 5.32 -2 6 C-2.33 5.01 -2.66 4.02 -3 3 C-3.66 2.67 -4.32 2.34 -5 2 C-2.625 0.9375 -2.625 0.9375 0 0 Z " fill="#E0E1E1" transform="translate(276,235)"/>
<path d="M0 0 C0.99 0.33 1.98 0.66 3 1 C2.67 1.99 2.34 2.98 2 4 C1.01 4 0.02 4 -1 4 C-1.33 4.66 -1.66 5.32 -2 6 C-2.99 5.67 -3.98 5.34 -5 5 C-3.35 3.35 -1.7 1.7 0 0 Z " fill="#F7F7F7" transform="translate(268,190)"/>
<path d="M0 0 C0.6875 1.625 0.6875 1.625 1 4 C-0.4375 7.25 -0.4375 7.25 -2 10 C-2.33 10 -2.66 10 -3 10 C-2.25 3.375 -2.25 3.375 0 0 Z " fill="#666666" transform="translate(367,376)"/>
<path d="M0 0 C2 1.8125 2 1.8125 4 4 C4 4.99 4 5.98 4 7 C1.37812506 5.95125002 0.20628639 5.35068687 -1.25 2.875 C-1.4975 2.25625 -1.745 1.6375 -2 1 C-1.34 0.67 -0.68 0.34 0 0 Z " fill="#DFDFDF" transform="translate(211,238)"/>
<path d="M0 0 C2.475 0.495 2.475 0.495 5 1 C4.34 2.65 3.68 4.3 3 6 C2.34 6 1.68 6 1 6 C0.67 4.02 0.34 2.04 0 0 Z " fill="#F8FAFB" transform="translate(210,300)"/>
<path d="M0 0 C1.9375 0.3125 1.9375 0.3125 4 1 C4.33 1.99 4.66 2.98 5 4 C4.01 4.99 3.02 5.98 2 7 C1.34 4.69 0.68 2.38 0 0 Z " fill="#09090B" transform="translate(210,257)"/>
<path d="M0 0 C-1.36983503 3.16115776 -1.9890638 3.9927092 -5 6 C-5.33 5.01 -5.66 4.02 -6 3 C-4.60722783 0.21445565 -3.01148006 0 0 0 Z " fill="#E0E0E0" transform="translate(272,193)"/>
<path d="M0 0 C0 3.10551666 -0.5393715 4.35261084 -2 7 C-3.32 6.67 -4.64 6.34 -6 6 C-4.02 4.02 -2.04 2.04 0 0 Z " fill="#1C1C1C" transform="translate(292,173)"/>
<path d="M0 0 C0.33 0.66 0.66 1.32 1 2 C0.06553465 4.03144641 -0.93224776 6.03533587 -2 8 C-2.99 7.34 -3.98 6.68 -5 6 C-3.35 4.02 -1.7 2.04 0 0 Z " fill="#1F2023" transform="translate(260,157)"/>
<path d="M0 0 C0.99 0.33 1.98 0.66 3 1 C2.34 2.32 1.68 3.64 1 5 C0.01 5 -0.98 5 -2 5 C-1.34 3.35 -0.68 1.7 0 0 Z " fill="#202123" transform="translate(332,340)"/>
<path d="M0 0 C0.66 0.33 1.32 0.66 2 1 C-1.465 3.97 -1.465 3.97 -5 7 C-5 6.01 -5 5.02 -5 4 C-2.5 1.8125 -2.5 1.8125 0 0 Z " fill="#D7D7D7" transform="translate(307,157)"/>
</svg>
